<svg width="640" height="360" viewBox="0 0 640 360" xmlns="http://www.w3.org/2000/svg" role="img" aria-label="Dashboard illustration">
  <defs>
    <linearGradient id="g1" x1="0" x2="1" y1="0" y2="1">
      <stop offset="0%" stop-color="#0E66FF" stop-opacity="0.9"/>
      <stop offset="100%" stop-color="#00A38C" stop-opacity="0.8"/>
    </linearGradient>
  </defs>
  <rect width="640" height="360" fill="#0b1f33"/>
  <rect x="28" y="28" width="584" height="304" rx="22" fill="url(#g1)" opacity="0.3"/>
  <rect x="52" y="56" width="280" height="48" rx="12" fill="#0E66FF" opacity="0.25"/>
  <rect x="348" y="56" width="240" height="48" rx="12" fill="#00A38C" opacity="0.25"/>
  <rect x="52" y="124" width="536" height="60" rx="12" fill="#ffffff" opacity="0.08"/>
  <rect x="52" y="204" width="240" height="100" rx="12" fill="#ffffff" opacity="0.12"/>
  <rect x="308" y="204" width="280" height="100" rx="12" fill="#ffffff" opacity="0.12"/>
  <circle cx="96" cy="154" r="9" fill="#0E66FF"/>
  <circle cx="128" cy="154" r="9" fill="#00A38C"/>
  <circle cx="160" cy="154" r="9" fill="#5b8def"/>
  <path d="M340 248 L360 222 L400 262 L450 204 L520 280" stroke="#00E0B8" stroke-width="8" fill="none" stroke-linecap="round" stroke-linejoin="round"/>
  <circle cx="340" cy="248" r="6" fill="#00E0B8"/>
  <circle cx="360" cy="222" r="6" fill="#00E0B8"/>
  <circle cx="400" cy="262" r="6" fill="#00E0B8"/>
  <circle cx="450" cy="204" r="6" fill="#00E0B8"/>
  <circle cx="520" cy="280" r="6" fill="#00E0B8"/>
  <text x="70" y="86" fill="#fff" font-family="Arial, sans-serif" font-size="18" opacity="0.9">Operaciones 路 Redshift 路 BI</text>
  <text x="70" y="146" fill="#fff" font-family="Arial, sans-serif" font-size="14" opacity="0.7">KPIs: OEE 路 SLA 路 Tiempo de ciclo</text>
</svg>
